<?xml version="1.0" encoding="UTF-8"?>
<svg version="1.1" viewBox="0 0 2048 1117" width="1280" height="1280" xmlns="http://www.w3.org/2000/svg">
<path transform="translate(300,368)" d="m0 0h164l32 32 1 7v149l-7 8-26 26h-163l-1-1zm59 49-1 123 1 1h79l1-124z" fill="#FE4E01"/>
<path transform="translate(541,368)" d="m0 0h189v48l-1 1h-130v37h113v49h-113v38h131v49h-156l-33-33z" fill="#FE4D01"/>
<path transform="translate(1627,368)" d="m0 0h30l19 4 16 6 16 10 11 9 8 8 10 14 10 21 4 14 2 14v23l-3 17-5 15-10 18-9 12-11 11-14 10-16 8-21 6-17 2h-13l-15-2-17-5-16-7-12-8-15-14-9-11-8-14-6-14-4-17-1-6v-27l3-16 8-21 8-14 9-11 10-10 13-9 17-9 16-5zm8 50-10 2-12 6-12 10-9 14-5 14-1 7v15l2 11 5 12 6 9 6 7 13 9 9 4 12 2 16-1 15-6 13-11 9-14 5-14 1-7v-17l-4-16-5-10-7-9-11-10-15-6-6-1z" fill="#548C3D"/>
<path transform="translate(1325,374)" d="m0 0h91l20 2 16 5 12 6 10 8 7 7 9 16 5 15 1 8v19l-3 15-9 16-14 14-10 6h-2l5 9 9 16 18 35 6 14-1 4-5 1h-52l-8-16-9-19-11-25-4-8h-30v66l-6 2h-45l-2-2v-212zm68 47-17 1v52l12 1h19l18-2 10-4 5-5 4-8v-13l-5-10-8-7-13-4-11-1z" fill="#548C3C"/>
<path transform="translate(1189,368)" d="m0 0h27l18 3 18 6 19 10 14 11 3 3-1 6-16 21-8 10-3 3-4-1-14-11-15-7-13-3-11-1-14 2-13 5-13 11-7 10-6 13-3 17 1 13 4 15 6 11 10 11 10 7 14 5 7 1h13l15-4 9-4h2l1-16h-14l-13-1-1-2v-43l6-2h66l4 2v91l-11 8-10 6-15 6-19 6-16 3-11 1h-11l-15-2-15-4-16-7-11-7-13-11-10-11-9-14-7-15-4-13-2-10-1-12v-11l2-16 4-16 9-19 12-17 11-11 14-10 16-8 10-4z" fill="#558C3D"/>
<path transform="translate(775,368)" d="m0 0h57v173h120l1 1v47l-1 1h-145l-33-33v-188z" fill="#FE4D00"/>
<path transform="translate(979,368)" d="m0 0h93l1 3-1 41h-17v133h17v45h-93v-45h18l-1-132-17-1z" fill="#FE4D00"/>
<path transform="translate(1389,652)" d="m0 0h14l7 4 4 7 1 11-3 8-8 7-4 1h-8l-6-2-5-4-3-6-1-11 3-8 7-6zm5 7-4 2-2 3-1 9 2 6 3 3h7l5-5v-12l-3-5z" fill="#628738"/>
<path transform="translate(1199,652)" d="m0 0h17l10 3 5 6 1 3v13l-5 8-8 4-17 1-3-1zm10 8-1 1v20l7 1 5-2 2-4v-11l-3-4-3-1z" fill="#658536"/>
<path transform="translate(882,652)" d="m0 0h13l7 4 4 6 1 4v10l-3 6-5 5-6 3h-9l-7-3-5-6-2-5v-11l4-8 5-4zm4 7-5 4-1 3v10l3 5 2 1h7l4-4 1-3v-8l-3-6-3-2z" fill="#5D8839"/>
<path transform="translate(1471,652)" d="m0 0h17l7 3 3 3 1 5-2 6-2 3v5l5 5v7h-8l-5-6-3-6-4-1v12l-3 2-7-1v-36zm9 8-1 7 1 1h7l2-3-1-4-2-1z" fill="#62883A"/>
<path transform="translate(1053,652)" d="m0 0h18l7 3 3 4v7l-4 6 1 5 5 7-1 5-4 1-5-2-5-7-2-4-4-1v13l-2 1h-6l-1-1zm10 8-1 1v7h7l2-2-1-5z" fill="#708031"/>
<path transform="translate(1298,652)" d="m0 0h14l6 4 4 5 1 3v13l-4 7-6 5-4 1h-8l-8-3-4-5-2-4v-14l4-7 4-4zm4 7-5 5-1 3v8l3 6 2 1h7l5-5 1-9-2-5-3-3z" fill="#628637"/>
<path transform="translate(962,652)" d="m0 0h9l1 1 1 26 3 2h6l3-3 1-26h9l1 5v15l-2 10-5 6-6 2-13-1-6-5-2-5z" fill="#558939"/>
<path transform="translate(569,652)" d="m0 0h6l7 14 8 20-1 4-8-1-2-3v-3h-14l-2 6h-9l3-9 8-22zm2 16-2 4 1 4 4-1 1-2-2-5z" fill="#6B8436"/>
<path transform="translate(784,652)" d="m0 0h9l3 1 4 8v2l3-2 4-8 4-1h7l-2 5-8 15-1 3-1 14-8 1-2-3v-9l-4-10-8-14z" fill="#628839"/>
<path transform="translate(641,652)" d="m0 0h31l1 1v6l-1 1-10 1-1 28-1 1h-7l-1-1-1-28-10-1-1-1v-6z" fill="#6C8436"/>
<path transform="translate(962,652)" d="m0 0h9l1 1 1 28h-3l-1-6v-17l1-4h-6l1 21 2 8 4 3 11 1 8-1-3 3-4 1-13-1-6-5-2-5z" fill="#F0590F"/>
<path transform="translate(885,652)" d="m0 0h10l7 4 4 6 1 4v10l-3 6-5 5-6 3h-9l-7-3-5-6-2-5v-11l3-6 1 3-1 3v13l4 6 5 3h11l7-2 2-5 1-2v-8l-2-10-6-5-10-2z" fill="#E85F17"/>
<path transform="translate(1199,652)" d="m0 0h10l-1 2h-6l1 34h-4z" fill="#FC4D00"/>
<path transform="translate(986,652)" d="m0 0h9l1 5v15l-2 10-1-4v-23l-6-1v26l-1 2-3-1 2-3z" fill="#F77C43"/>
<path transform="translate(1387,653)" d="m0 0 3 1-6 4-3 6v11l2 7 7 5 4 2h-7l-6-5-3-6-1-11 3-8z" fill="#EB631D"/>
<path transform="translate(962,652)" d="m0 0h9l1 1 1 28h-3l-1-6v-17l1-4-8 1z" fill="#E9631C"/>
<path transform="translate(651,660)" d="m0 0 3 1v27l4 1-5 1-1-1z" fill="#FE5207"/>
<path transform="translate(1291,657)" d="m0 0 1 2-3 7v9l3 9 10 4-1 2-8-3-4-5-2-4v-14z" fill="#F95810"/>
<path transform="translate(810,663)" d="m0 0 1 3-4 9-1 14-4-1 1-11z" fill="#EF5409"/>
<path transform="translate(1391,652)" d="m0 0h12l7 4 4 7 1 6-2 2-3-9-5-6-5-2-9-1z" fill="#F55C14"/>
<path transform="translate(566,682)" d="m0 0h14l1 5 6 1v-6l2 1 1 6-1 1-8-1-2-3v-3h-13z" fill="#EC5D15"/>
<path transform="translate(1471,652)" d="m0 0h9l-3 2-4 1-1 2-1 27h-1v-31z" fill="#F05204"/>
<path transform="translate(784,652)" d="m0 0h4l1 6 7 11-1 4-11-19z" fill="#F26019"/>
<path transform="translate(1388,662)" d="m0 0 1 2-1 9 2 8-4-2-1-2v-10z" fill="#F2590F"/>
<path transform="translate(1494,677)" d="m0 0 6 5v7h-8l-1-2h7l-3-7z" fill="#F45A11"/>
<path transform="translate(880,663)" d="m0 0 1 3v10l1 4h-3l-1-2v-10z" fill="#F3560B"/>
<path transform="translate(793,653)" d="m0 0h3l4 8v2l4-2v3l-5 1z" fill="#EE621C"/>
<path transform="translate(1380,680)" d="m0 0h2l5 5 7 3v1h-7l-6-5z" fill="#E76018"/>
<path transform="translate(1080,681)" d="m0 0 3 3-1 5-4 1-5-2v-1h7z" fill="#E16923"/>
<path transform="translate(1289,681)" d="m0 0 3 1v2l10 4-1 2-8-3-4-5z" fill="#DD5F15"/>
<path transform="translate(571,665)" d="m0 0 3 1-1 3h-2l-1 6 3 2-5-1 1-8z" fill="#FE5309"/>
</svg>
